<?xml version="1.0" encoding="UTF-8" standalone="no"?>
<svg
   xmlns:dc="http://purl.org/dc/elements/1.1/"
   xmlns:cc="http://creativecommons.org/ns#"
   xmlns:rdf="http://www.w3.org/1999/02/22-rdf-syntax-ns#"
   xmlns:svg="http://www.w3.org/2000/svg"
   xmlns="http://www.w3.org/2000/svg"
   xmlns:sodipodi="http://sodipodi.sourceforge.net/DTD/sodipodi-0.dtd"
   xmlns:inkscape="http://www.inkscape.org/namespaces/inkscape"
   version="1.1"
   id="Layer_1"
   x="0px"
   y="0px"
   width="100"
   height="100"
   viewBox="0 0 100 100"
   xml:space="preserve"
   inkscape:version="0.48.4 r9939"
   sodipodi:docname="icon.svg"
   inkscape:export-filename="/Users/victor/workspace/dropbox-js/samples/checkbox.js/public/images/icon256.png"
   inkscape:export-xdpi="230.39999"
   inkscape:export-ydpi="230.39999"><metadata
   id="metadata3292"><rdf:RDF><cc:Work
       rdf:about=""><dc:format>image/svg+xml</dc:format><dc:type
         rdf:resource="http://purl.org/dc/dcmitype/StillImage" /><dc:title></dc:title></cc:Work></rdf:RDF></metadata><defs
   id="defs3290" /><sodipodi:namedview
   pagecolor="#ffffff"
   bordercolor="#666666"
   borderopacity="1"
   objecttolerance="10"
   gridtolerance="10"
   guidetolerance="10"
   inkscape:pageopacity="0"
   inkscape:pageshadow="2"
   inkscape:window-width="1089"
   inkscape:window-height="795"
   id="namedview3288"
   showgrid="false"
   inkscape:zoom="2.6971429"
   inkscape:cx="5.5084746"
   inkscape:cy="43.75"
   inkscape:window-x="126"
   inkscape:window-y="76"
   inkscape:window-maximized="0"
   inkscape:current-layer="Layer_1" />







<g
   id="g3294"
   transform="translate(0,-6.25)"><path
     inkscape:connector-curvature="0"
     id="path3272"
     d="M 12.5,18.75 C 12.5,22.205 9.705,25 6.25,25 2.795,25 0,22.205 0,18.75 0,15.295 2.795,12.5 6.25,12.5 c 3.455,0 6.25,2.795 6.25,6.25 z"
     style="fill:#010101" /><rect
     y="12.5"
     id="rect3274"
     height="12.5"
     width="75"
     style="fill:#010101"
     x="25" /><path
     inkscape:connector-curvature="0"
     id="path3276"
     d="M 12.5,68.75 C 12.5,72.205 9.705,75 6.25,75 2.795,75 0,72.205 0,68.75 0,65.295 2.795,62.5 6.25,62.5 c 3.455,0 6.25,2.795 6.25,6.25 z"
     style="fill:#010101" /><rect
     id="rect3278"
     height="12.5"
     width="75"
     style="fill:#010101"
     y="62.5"
     x="25" /><path
     inkscape:connector-curvature="0"
     id="path3280"
     d="M 12.5,43.75 C 12.5,47.205 9.705,50 6.25,50 2.795,50 0,47.205 0,43.75 0,40.295 2.795,37.5 6.25,37.5 c 3.455,0 6.25,2.795 6.25,6.25 z"
     style="fill:#010101" /><path
     inkscape:connector-curvature="0"
     id="path3282"
     d="M 12.5,93.75 C 12.5,97.205 9.705,100 6.25,100 2.795,100 0,97.205 0,93.75 0,90.295 2.795,87.5 6.25,87.5 c 3.455,0 6.25,2.795 6.25,6.25 z"
     style="fill:#010101" /><rect
     id="rect3284"
     height="12.5"
     width="75"
     style="fill:#010101"
     y="37.5"
     x="25" /><rect
     id="rect3286"
     height="12.5"
     width="75"
     style="fill:#010101"
     y="87.5"
     x="25" /></g>
</svg>